# xmcd
#
# Track frame offsets:
#	150
#	33396
#	67167
#	127157
#	180218
#	216497
#
# Disc length: 3357 seconds
#
# Revision: 1
# Processed by: cddbd v1.4b42PL1 Copyright (c) Steve Scherf et al.
# Submitted via: audiograbber 1.80
#
DISCID=5a0d1b06
DTITLE=Vaiyasaki das - The Way of Love
DYEAR=1900
DGENRE=
TTITLE0=Gopinath
TTITLE1=Nitai Mile Na
TTITLE2=Durlabha Manava Janma
TTITLE3=Jamuna Puline
TTITLE4=Shyamol Sundara Shyam
TTITLE5=Ar Ke Bhajabe
EXTD=
EXTT0=
EXTT1=
EXTT2=
EXTT3=
EXTT4=
EXTT5=
PLAYORDER=
